<?xml version="1.0" encoding="UTF-8" ?>
<svg version="1.1" width="64" height="64" xmlns="http://www.w3.org/2000/svg" shape-rendering="crispEdges">
<rect x="16" y="6" width="6" height="2" fill="#66384C" />
<rect x="42" y="6" width="6" height="2" fill="#66384C" />
<rect x="14" y="8" width="2" height="2" fill="#66384C" />
<rect x="16" y="8" width="6" height="34" fill="#80465F" />
<rect x="22" y="8" width="2" height="2" fill="#66384C" />
<rect x="40" y="8" width="2" height="2" fill="#66384C" />
<rect x="42" y="8" width="6" height="34" fill="#80465F" />
<rect x="48" y="8" width="2" height="2" fill="#66384C" />
<rect x="12" y="10" width="2" height="2" fill="#66384C" />
<rect x="14" y="10" width="2" height="30" fill="#80465F" />
<rect x="22" y="10" width="2" height="24" fill="#80465F" />
<rect x="24" y="10" width="2" height="2" fill="#66384C" />
<rect x="38" y="10" width="2" height="2" fill="#66384C" />
<rect x="40" y="10" width="2" height="16" fill="#80465F" />
<rect x="48" y="10" width="2" height="30" fill="#80465F" />
<rect x="50" y="10" width="2" height="2" fill="#66384C" />
<rect x="10" y="12" width="2" height="2" fill="#66384C" />
<rect x="12" y="12" width="2" height="26" fill="#80465F" />
<rect x="24" y="12" width="2" height="20" fill="#80465F" />
<rect x="26" y="12" width="2" height="2" fill="#66384C" />
<rect x="36" y="12" width="2" height="2" fill="#66384C" />
<rect x="38" y="12" width="2" height="16" fill="#80465F" />
<rect x="50" y="12" width="2" height="26" fill="#80465F" />
<rect x="52" y="12" width="2" height="2" fill="#66384C" />
<rect x="8" y="14" width="2" height="2" fill="#66384C" />
<rect x="10" y="14" width="2" height="22" fill="#80465F" />
<rect x="26" y="14" width="2" height="10" fill="#80465F" />
<rect x="28" y="14" width="2" height="2" fill="#66384C" />
<rect x="34" y="14" width="2" height="2" fill="#66384C" />
<rect x="36" y="14" width="2" height="10" fill="#80465F" />
<rect x="52" y="14" width="2" height="22" fill="#80465F" />
<rect x="54" y="14" width="2" height="2" fill="#66384C" />
<rect x="6" y="16" width="2" height="2" fill="#66384C" />
<rect x="8" y="16" width="2" height="18" fill="#80465F" />
<rect x="28" y="16" width="2" height="6" fill="#80465F" />
<rect x="30" y="16" width="4" height="2" fill="#66384C" />
<rect x="34" y="16" width="2" height="6" fill="#80465F" />
<rect x="54" y="16" width="2" height="18" fill="#80465F" />
<rect x="56" y="16" width="2" height="2" fill="#66384C" />
<rect x="4" y="18" width="2" height="2" fill="#66384C" />
<rect x="6" y="18" width="2" height="14" fill="#80465F" />
<rect x="30" y="18" width="4" height="4" fill="#80465F" />
<rect x="56" y="18" width="2" height="14" fill="#80465F" />
<rect x="58" y="18" width="2" height="2" fill="#66384C" />
<rect x="2" y="20" width="2" height="2" fill="#66384C" />
<rect x="4" y="20" width="2" height="10" fill="#80465F" />
<rect x="58" y="20" width="2" height="10" fill="#80465F" />
<rect x="60" y="20" width="2" height="2" fill="#66384C" />
<rect x="0" y="22" width="2" height="6" fill="#66384C" />
<rect x="2" y="22" width="2" height="6" fill="#80465F" />
<rect x="28" y="22" width="8" height="2" fill="#CC7098" />
<rect x="60" y="22" width="2" height="6" fill="#80465F" />
<rect x="62" y="22" width="2" height="6" fill="#66384C" />
<rect x="26" y="24" width="2" height="4" fill="#CC7098" />
<rect x="28" y="24" width="8" height="2" fill="#80465F" />
<rect x="36" y="24" width="2" height="8" fill="#CC7098" />
<rect x="28" y="26" width="4" height="6" fill="#80465F" />
<rect x="32" y="26" width="2" height="2" fill="#CC7098" />
<rect x="34" y="26" width="2" height="2" fill="#80465F" />
<rect x="40" y="26" width="2" height="2" fill="#CC7098" />
<rect x="2" y="28" width="2" height="2" fill="#66384C" />
<rect x="26" y="28" width="2" height="2" fill="#80465F" />
<rect x="32" y="28" width="2" height="10" fill="#80465F" />
<rect x="34" y="28" width="2" height="2" fill="#CC7098" />
<rect x="38" y="28" width="2" height="2" fill="#CC7098" />
<rect x="40" y="28" width="2" height="20" fill="#80465F" />
<rect x="60" y="28" width="2" height="2" fill="#66384C" />
<rect x="4" y="30" width="2" height="2" fill="#66384C" />
<rect x="26" y="30" width="2" height="8" fill="#CC7098" />
<rect x="34" y="30" width="2" height="8" fill="#80465F" />
<rect x="38" y="30" width="2" height="20" fill="#80465F" />
<rect x="58" y="30" width="2" height="2" fill="#66384C" />
<rect x="6" y="32" width="2" height="2" fill="#66384C" />
<rect x="24" y="32" width="2" height="2" fill="#CC7098" />
<rect x="28" y="32" width="2" height="2" fill="#CC7098" />
<rect x="30" y="32" width="2" height="2" fill="#80465F" />
<rect x="36" y="32" width="2" height="2" fill="#80465F" />
<rect x="56" y="32" width="2" height="2" fill="#66384C" />
<rect x="8" y="34" width="2" height="2" fill="#66384C" />
<rect x="22" y="34" width="2" height="2" fill="#CC7098" />
<rect x="24" y="34" width="2" height="16" fill="#80465F" />
<rect x="28" y="34" width="2" height="4" fill="#80465F" />
<rect x="30" y="34" width="2" height="2" fill="#CC7098" />
<rect x="36" y="34" width="2" height="4" fill="#CC7098" />
<rect x="54" y="34" width="2" height="2" fill="#66384C" />
<rect x="10" y="36" width="2" height="2" fill="#66384C" />
<rect x="22" y="36" width="2" height="12" fill="#80465F" />
<rect x="30" y="36" width="2" height="2" fill="#80465F" />
<rect x="52" y="36" width="2" height="2" fill="#66384C" />
<rect x="12" y="38" width="2" height="2" fill="#66384C" />
<rect x="26" y="38" width="2" height="14" fill="#80465F" />
<rect x="28" y="38" width="8" height="2" fill="#CC7098" />
<rect x="36" y="38" width="2" height="14" fill="#80465F" />
<rect x="50" y="38" width="2" height="2" fill="#66384C" />
<rect x="14" y="40" width="2" height="2" fill="#66384C" />
<rect x="28" y="40" width="8" height="14" fill="#80465F" />
<rect x="48" y="40" width="2" height="2" fill="#66384C" />
<rect x="16" y="42" width="2" height="2" fill="#66384C" />
<rect x="18" y="42" width="4" height="2" fill="#80465F" />
<rect x="42" y="42" width="4" height="2" fill="#80465F" />
<rect x="46" y="42" width="2" height="2" fill="#66384C" />
<rect x="18" y="44" width="2" height="2" fill="#66384C" />
<rect x="20" y="44" width="2" height="2" fill="#80465F" />
<rect x="42" y="44" width="2" height="2" fill="#80465F" />
<rect x="44" y="44" width="2" height="2" fill="#66384C" />
<rect x="20" y="46" width="2" height="2" fill="#66384C" />
<rect x="42" y="46" width="2" height="2" fill="#66384C" />
<rect x="22" y="48" width="2" height="2" fill="#66384C" />
<rect x="40" y="48" width="2" height="2" fill="#66384C" />
<rect x="24" y="50" width="2" height="2" fill="#66384C" />
<rect x="38" y="50" width="2" height="2" fill="#66384C" />
<rect x="26" y="52" width="2" height="2" fill="#66384C" />
<rect x="36" y="52" width="2" height="2" fill="#66384C" />
<rect x="28" y="54" width="2" height="2" fill="#66384C" />
<rect x="30" y="54" width="4" height="2" fill="#80465F" />
<rect x="34" y="54" width="2" height="2" fill="#66384C" />
<rect x="30" y="56" width="4" height="2" fill="#66384C" />
</svg>